<?xml version="1.0" encoding="UTF-8" standalone="no"?>
<svg
   xmlns:dc="http://purl.org/dc/elements/1.1/"
   xmlns:cc="http://creativecommons.org/ns#"
   xmlns:rdf="http://www.w3.org/1999/02/22-rdf-syntax-ns#"
   xmlns:svg="http://www.w3.org/2000/svg"
   xmlns="http://www.w3.org/2000/svg"
   xmlns:sodipodi="http://sodipodi.sourceforge.net/DTD/sodipodi-0.dtd"
   xmlns:inkscape="http://www.inkscape.org/namespaces/inkscape"
   width="1200pt"
   height="1200pt"
   version="1.1"
   viewBox="0 0 1200 1200"
   id="svg40"
   sodipodi:docname="nplug.svg"
   inkscape:version="0.92.4 (5da689c313, 2019-01-14)"
   inkscape:export-filename="C:\code\NPlug\img\nplug.png"
   inkscape:export-xdpi="30.719999"
   inkscape:export-ydpi="30.719999">
  <metadata
     id="metadata46">
    <rdf:RDF>
      <cc:Work
         rdf:about="">
        <dc:format>image/svg+xml</dc:format>
        <dc:type
           rdf:resource="http://purl.org/dc/dcmitype/StillImage" />
      </cc:Work>
    </rdf:RDF>
  </metadata>
  <defs
     id="defs44" />
  <sodipodi:namedview
     pagecolor="#ffffff"
     bordercolor="#666666"
     borderopacity="1"
     objecttolerance="10"
     gridtolerance="10"
     guidetolerance="10"
     inkscape:pageopacity="0"
     inkscape:pageshadow="2"
     inkscape:window-width="3585"
     inkscape:window-height="1669"
     id="namedview42"
     showgrid="false"
     inkscape:zoom="0.59"
     inkscape:cx="861.59245"
     inkscape:cy="752.45214"
     inkscape:window-x="0"
     inkscape:window-y="0"
     inkscape:window-maximized="0"
     inkscape:current-layer="layer2" />
  <path
     inkscape:connector-curvature="0"
     id="path2"
     d="M 183.85,364.75 H 458 c 9.9375,0 18,-8.0508 18,-18 V 200.89 c 0,-9.9492 -8.0625,-18 -18,-18 H 272.25 c -9.9375,0 -18,8.0508 -18,18 0,9.9492 8.0625,18 18,18 H 440 v 109.87 l -238.15,0.004 v -109.87 h 23.137 c 9.9375,0 18,-8.0508 18,-18 0,-9.9492 -8.0625,-18 -18,-18 H 183.85 c -9.9375,0 -18,8.0508 -18,18 v 145.87 c 0,9.9336 8.0625,17.988 18,17.988 z"
     style="fill:#006680" />
  <path
     inkscape:connector-curvature="0"
     id="path6"
     d="M 587.3,471.59 V 412.5 c 0,-8.6172 -6.9844,-15.602 -15.602,-15.602 -8.6176,0 -15.602,6.9844 -15.602,15.602 v 59.09 c 0,8.6172 6.9844,15.602 15.602,15.602 8.6172,-0.004 15.602,-6.9883 15.602,-15.602 z"
     style="fill:#006680" />
  <path
     inkscape:connector-curvature="0"
     id="path8"
     d="m 556.12,362.06 v 9.9375 c 0,8.6172 6.9844,15.602 15.602,15.602 8.6176,0 15.602,-6.9844 15.602,-15.602 v -9.9258 c 21.48,-6.6953 37.211,-26.531 37.211,-50.184 0,-23.653 -15.73,-43.488 -37.211,-50.195 v -60.805 c 0,-8.6172 -6.9844,-15.602 -15.602,-15.602 -8.6176,0 -15.602,6.9844 -15.602,15.602 v 60.805 c -21.48,6.6953 -37.223,26.531 -37.223,50.195 -0.004,23.641 15.742,43.477 37.223,50.172 z m 15.598,-66.996 c 9.2656,0 16.801,7.5352 16.801,16.812 0,9.2656 -7.5352,16.801 -16.801,16.801 -9.2658,0 -16.812,-7.5352 -16.812,-16.801 -0.0117,-9.2617 7.5391,-16.812 16.812,-16.812 z"
     style="fill:#d40000" />
  <path
     inkscape:connector-curvature="0"
     id="path10"
     d="m 690.7,362.06 v 109.52 c 0,8.6172 6.9844,15.602 15.602,15.602 8.6176,0 15.602,-6.9844 15.602,-15.602 V 362.06 c 21.48,-6.6953 37.211,-26.531 37.211,-50.184 0,-23.653 -15.73,-43.488 -37.211,-50.195 v -60.805 c 0,-8.6172 -6.9844,-15.602 -15.602,-15.602 -8.6176,0 -15.602,6.9844 -15.602,15.602 v 60.805 c -21.48,6.6953 -37.223,26.531 -37.223,50.195 0,23.652 15.742,43.488 37.223,50.184 z m 15.59,-66.996 c 9.2656,0 16.801,7.5352 16.801,16.812 0,9.2656 -7.5352,16.801 -16.801,16.801 -9.2658,0 -16.812,-7.5352 -16.812,-16.801 0,-9.2617 7.5469,-16.812 16.812,-16.812 z"
     style="fill:#ffcc00" />
  <path
     inkscape:connector-curvature="0"
     id="path12"
     d="m 856.45,471.59 v -19.332 c 0,-8.6172 -6.9844,-15.602 -15.602,-15.602 -8.6172,0 -15.602,6.9844 -15.602,15.602 v 19.332 c 0,8.6172 6.9844,15.602 15.602,15.602 8.6172,-0.004 15.602,-6.9883 15.602,-15.602 z"
     style="fill:#006680" />
  <path
     inkscape:connector-curvature="0"
     id="path14"
     d="m 825.25,362.06 v 50.438 c 0,8.6172 6.9844,15.602 15.602,15.602 8.6172,0 15.602,-6.9844 15.602,-15.602 V 362.06 c 21.48,-6.6953 37.223,-26.531 37.223,-50.184 0,-23.653 -15.742,-43.488 -37.223,-50.195 v -60.805 c 0,-8.6172 -6.9844,-15.602 -15.602,-15.602 -8.6172,0 -15.602,6.9844 -15.602,15.602 v 60.805 c -21.48,6.6953 -37.211,26.531 -37.211,50.195 0.008,23.652 15.742,43.488 37.211,50.184 z m 15.598,-66.996 c 9.2656,0 16.812,7.5352 16.812,16.812 0,9.2656 -7.5469,16.801 -16.812,16.801 -9.2656,0 -16.801,-7.5352 -16.801,-16.801 0,-9.2617 7.5391,-16.812 16.801,-16.812 z"
     style="fill:#55d400" />
  <path
     inkscape:connector-curvature="0"
     id="path16"
     d="m 959.83,362.06 v 109.52 c 0,8.6172 6.9844,15.602 15.602,15.602 8.6172,0 15.602,-6.9844 15.602,-15.602 V 362.06 c 21.48,-6.6953 37.223,-26.531 37.223,-50.184 0,-23.653 -15.742,-43.488 -37.223,-50.195 v -60.805 c 0,-8.6172 -6.9844,-15.602 -15.602,-15.602 -8.6172,0 -15.602,6.9844 -15.602,15.602 v 60.805 c -21.48,6.6953 -37.211,26.531 -37.211,50.195 0.0117,23.652 15.742,43.488 37.211,50.184 z m 15.602,-66.996 c 9.2656,0 16.812,7.5352 16.812,16.812 0,9.2656 -7.5469,16.801 -16.812,16.801 -9.2651,0 -16.801,-7.5352 -16.801,-16.801 0,-9.2617 7.5352,-16.812 16.801,-16.812 z"
     style="fill:#00aad4" />
  <path
     inkscape:connector-curvature="0"
     id="path18"
     d="m 239.2,414 h -49.586 c -3.1797,0 -5.7461,2.5781 -5.7461,5.7461 v 50.148 c 0,3.1797 2.5781,5.7461 5.7461,5.7461 H 239.2 c 3.1797,0 5.7461,-2.5781 5.7461,-5.7461 v -50.148 C 244.95001,416.5781 242.3797,414 239.2,414 Z"
     style="fill:#006680" />
  <path
     inkscape:connector-curvature="0"
     id="path20"
     d="m 345.72,414 h -49.586 c -3.1797,0 -5.7461,2.5781 -5.7461,5.7461 v 50.148 c 0,3.1797 2.5781,5.7461 5.7461,5.7461 h 49.586 c 3.1797,0 5.7461,-2.5781 5.7461,-5.7461 v -50.148 C 351.47001,416.5781 348.8997,414 345.72,414 Z"
     style="fill:#006680" />
  <path
     inkscape:connector-curvature="0"
     id="path22"
     d="m 452.26,414 h -49.586 c -3.1797,0 -5.7461,2.5781 -5.7461,5.7461 v 50.148 c 0,3.1797 2.5664,5.7461 5.7461,5.7461 h 49.586 c 3.1797,0 5.7461,-2.5781 5.7461,-5.7461 v -50.148 c 0,-3.168 -2.5781,-5.7461 -5.7461,-5.7461 z"
     style="fill:#006680" />
  <path
     inkscape:connector-curvature="0"
     id="path24"
     d="m 239.2,517.5 h -49.586 c -3.1797,0 -5.7461,2.5781 -5.7461,5.7461 v 50.148 c 0,3.1797 2.5781,5.7461 5.7461,5.7461 H 239.2 c 3.1797,0 5.7461,-2.5781 5.7461,-5.7461 v -50.148 c 0.004,-3.168 -2.5664,-5.7461 -5.7461,-5.7461 z"
     style="fill:#006680" />
  <path
     inkscape:connector-curvature="0"
     id="path26"
     d="m 345.72,517.5 h -49.586 c -3.1797,0 -5.7461,2.5781 -5.7461,5.7461 v 50.148 c 0,3.1797 2.5781,5.7461 5.7461,5.7461 h 49.586 c 3.1797,0 5.7461,-2.5781 5.7461,-5.7461 v -50.148 c 0.004,-3.168 -2.5664,-5.7461 -5.7461,-5.7461 z"
     style="fill:#006680" />
  <path
     inkscape:connector-curvature="0"
     id="path28"
     d="m 452.26,517.5 h -49.586 c -3.1797,0 -5.7461,2.5781 -5.7461,5.7461 v 50.148 c 0,3.1797 2.5664,5.7461 5.7461,5.7461 h 49.586 c 3.1797,0 5.7461,-2.5781 5.7461,-5.7461 v -50.148 c 0,-3.168 -2.5781,-5.7461 -5.7461,-5.7461 z"
     style="fill:#006680" />
  <path
     inkscape:connector-curvature="0"
     id="path30"
     d="m 601.16,549.7 c 0,16.27 -13.191,29.461 -29.461,29.461 -16.27,0 -29.461,-13.191 -29.461,-29.461 0,-16.27 13.191,-29.461 29.461,-29.461 16.27,0 29.461,13.191 29.461,29.461"
     style="fill:#006680" />
  <path
     inkscape:connector-curvature="0"
     id="path32"
     d="m 735.74,549.7 c 0,16.27 -13.188,29.461 -29.457,29.461 -16.27,0 -29.461,-13.191 -29.461,-29.461 0,-16.27 13.191,-29.461 29.461,-29.461 16.27,0 29.457,13.191 29.457,29.461"
     style="fill:#006680" />
  <path
     inkscape:connector-curvature="0"
     id="path34"
     d="m 870.32,549.7 c 0,16.27 -13.191,29.461 -29.461,29.461 -16.27,0 -29.461,-13.191 -29.461,-29.461 0,-16.27 13.191,-29.461 29.461,-29.461 16.27,0 29.461,13.191 29.461,29.461"
     style="fill:#006680" />
  <path
     inkscape:connector-curvature="0"
     id="path36"
     d="m 1004.9,549.7 c 0,16.27 -13.188,29.461 -29.457,29.461 -16.273,0 -29.461,-13.191 -29.461,-29.461 0,-16.27 13.188,-29.461 29.461,-29.461 16.27,0 29.457,13.191 29.457,29.461"
     style="fill:#006680" />
  <g
     inkscape:groupmode="layer"
     id="layer1"
     inkscape:label="Layer 1">
    <rect
       style="fill:#ffffff;fill-opacity:1;stroke:#000000;stroke-width:3;stroke-miterlimit:4;stroke-dasharray:none;stroke-opacity:1"
       id="rect4578"
       width="1020.7627"
       height="438.55933"
       x="87.711861"
       y="649.57629"
       rx="4.5"
       ry="4.5" />
  </g>
  <g
     inkscape:groupmode="layer"
     id="layer2"
     inkscape:label="Layer 2">
    <path
       inkscape:connector-curvature="0"
       id="path4"
       d="M 1039,82.934 H 160.98 c -55.691,0 -100.99,45.309 -100.99,100.99 v 832.15 c 0,55.691 45.301,100.99 100.99,100.99 H 1039 c 55.691,0 100.99,-45.301 100.99,-100.99 v -832.15 c 0,-55.684 -45.301,-100.99 -100.99,-100.99 z m -878.02,48 H 1039 c 29.219,0 52.992,23.773 52.992,52.992 v 454.11 h -984 v -454.11 c 0,-29.223 23.773,-52.992 52.992,-52.992 z m 105.29,794.57 c 7.0195,0 12.719,-5.6875 12.719,-12.719 v -233.94 h 52.285 v 233.94 c 0,7.0195 5.6875,12.719 12.719,12.719 h 14.449 v 143.57 h -106.62 v -143.57 z m 132.97,0 h 14.461 c 7.0195,0 12.719,-5.6875 12.719,-12.719 v -233.94 h 79.465 v 390.23 h -106.63 v -143.57 z m 147.44,-246.66 h 75.625 v 233.94 c 0,7.0195 5.6875,12.719 12.719,12.719 h 18.277 v 143.57 h -106.62 z m 147.42,246.66 h 10.633 c 7.0195,0 12.719,-5.6875 12.719,-12.719 v -233.94 h 56.113 v 233.94 c 0,7.0195 5.6875,12.719 12.719,12.719 h 14.461 v 143.57 h -106.63 v -143.57 z m 147.43,0 h 14.449 c 7.0195,0 12.719,-5.6875 12.719,-12.719 v -233.94 h 52.285 v 233.94 c 0,7.0195 5.6875,12.719 12.719,12.719 h 14.449 v 143.57 h -106.62 z m -733.55,90.574 v -337.23 h 75.852 v 233.94 c 0,7.0195 5.6875,12.719 12.719,12.719 h 14.461 v 143.57 h -50.039 c -29.219,0 -52.992,-23.77 -52.992,-52.992 z m 931.01,52.992 H 988.951 V 925.5 h 14.461 c 7.0195,0 12.719,-5.6875 12.719,-12.719 v -233.94 h 75.852 v 337.23 c 0,29.223 -23.773,52.992 -52.992,52.992 z"
       style="fill:#000000;fill-opacity:1" />
  </g>
</svg>
